<svg xmlns="http://www.w3.org/2000/svg" width="1920" height="3840"><path d="M956,1980L1256,1611L920,1685Z" fill="#f67f11" stroke="#f67f11" stroke-width="1.51"/><path d="M956,1980L1292,2080L1256,1611Z" fill="#f88d18" stroke="#f88d18" stroke-width="1.51"/><path d="M1256,1611L902,1460L920,1685Z" fill="#f27715" stroke="#f27715" stroke-width="1.51"/><path d="M902,1460L587,1676L920,1685Z" fill="#ed6717" stroke="#ed6717" stroke-width="1.51"/><path d="M920,1685L587,1676L956,1980Z" fill="#f06f12" stroke="#f06f12" stroke-width="1.51"/><path d="M1292,2080L1686,1850L1256,1611Z" fill="#fa9b2b" stroke="#fa9b2b" stroke-width="1.51"/><path d="M1256,1611L1465,1337L902,1460Z" fill="#f28025" stroke="#f28025" stroke-width="1.51"/><path d="M1686,1850L1465,1337L1256,1611Z" fill="#f69535" stroke="#f69535" stroke-width="1.51"/><path d="M1292,2080L1706,2099L1686,1850Z" fill="#fba740" stroke="#fba740" stroke-width="1.51"/><path d="M956,1980L908,2438L1292,2080Z" fill="#f98e18" stroke="#f98e18" stroke-width="1.51"/><path d="M1292,2080L1349,2479L1706,2099Z" fill="#fcaa36" stroke="#fcaa36" stroke-width="1.51"/><path d="M538,2129L908,2438L956,1980Z" fill="#f37c1a" stroke="#f37c1a" stroke-width="1.51"/><path d="M587,1676L538,2129L956,1980Z" fill="#ee6b15" stroke="#ee6b15" stroke-width="1.51"/><path d="M908,2438L1349,2479L1292,2080Z" fill="#fb9d28" stroke="#fb9d28" stroke-width="1.51"/><path d="M902,1460L430,1312L587,1676Z" fill="#e5541f" stroke="#e5541f" stroke-width="1.51"/><path d="M587,1676L222,1670L538,2129Z" fill="#df5521" stroke="#df5521" stroke-width="1.51"/><path d="M871,857L430,1312L902,1460Z" fill="#e45020" stroke="#e45020" stroke-width="1.51"/><path d="M1465,1337L1225,847L902,1460Z" fill="#ee7527" stroke="#ee7527" stroke-width="1.51"/><path d="M1686,1850L1841,1257L1465,1337Z" fill="#f3984d" stroke="#f3984d" stroke-width="1.51"/><path d="M2056,1823L1841,1257L1686,1850Z" fill="#f5a663" stroke="#f5a663" stroke-width="1.51"/><path d="M430,1312L222,1670L587,1676Z" fill="#d44a27" stroke="#d44a27" stroke-width="1.51"/><path d="M1706,2099L2056,1823L1686,1850Z" fill="#f9ad5c" stroke="#f9ad5c" stroke-width="1.51"/><path d="M2143,2006L2056,1823L1706,2099Z" fill="#f8b369" stroke="#f8b369" stroke-width="1.51"/><path d="M1349,2479L1791,2476L1706,2099Z" fill="#fab550" stroke="#fab550" stroke-width="1.51"/><path d="M1444,704L1225,847L1465,1337Z" fill="#eb7934" stroke="#eb7934" stroke-width="1.51"/><path d="M538,2129L594,2639L908,2438Z" fill="#f07b26" stroke="#f07b26" stroke-width="1.51"/><path d="M1014,2866L1317,2821L1349,2479Z" fill="#fcac38" stroke="#fcac38" stroke-width="1.51"/><path d="M1349,2479L1735,2880L1791,2476Z" fill="#fbbd59" stroke="#fbbd59" stroke-width="1.51"/><path d="M262,2607L594,2639L538,2129Z" fill="#e76e2d" stroke="#e76e2d" stroke-width="1.51"/><path d="M1225,847L871,857L902,1460Z" fill="#e9601e" stroke="#e9601e" stroke-width="1.51"/><path d="M222,1670L161,2029L538,2129Z" fill="#c55b2a" stroke="#c55b2a" stroke-width="1.51"/><path d="M1014,2866L1349,2479L908,2438Z" fill="#fb9f2b" stroke="#fb9f2b" stroke-width="1.51"/><path d="M2056,1823L2203,1412L1841,1257Z" fill="#f2a36a" stroke="#f2a36a" stroke-width="1.51"/><path d="M1968,2475L2143,2006L1706,2099Z" fill="#f7ba6f" stroke="#f7ba6f" stroke-width="1.51"/><path d="M430,1312L185,1280L222,1670Z" fill="#b8472e" stroke="#b8472e" stroke-width="1.51"/><path d="M871,857L431,1009L430,1312Z" fill="#dc3a26" stroke="#dc3a26" stroke-width="1.51"/><path d="M594,2639L1014,2866L908,2438Z" fill="#f68f28" stroke="#f68f28" stroke-width="1.51"/><path d="M1791,2476L1968,2475L1706,2099Z" fill="#f9bc68" stroke="#f9bc68" stroke-width="1.51"/><path d="M1982,2884L1968,2475L1791,2476Z" fill="#f7c87a" stroke="#f7c87a" stroke-width="1.51"/><path d="M304,1002L185,1280L430,1312Z" fill="#ba3d2e" stroke="#ba3d2e" stroke-width="1.51"/><path d="M222,1670L-68,1760L161,2029Z" fill="#9d5534" stroke="#9d5534" stroke-width="1.51"/><path d="M274,2861L621,2816L594,2639Z" fill="#ec7a34" stroke="#ec7a34" stroke-width="1.51"/><path d="M594,2639L621,2816L1014,2866Z" fill="#f48d2f" stroke="#f48d2f" stroke-width="1.51"/><path d="M2563,1861L2203,1412L2056,1823Z" fill="#f5aa69" stroke="#f5aa69" stroke-width="1.51"/><path d="M1878,897L1444,704L1465,1337Z" fill="#ec844a" stroke="#ec844a" stroke-width="1.51"/><path d="M431,1009L304,1002L430,1312Z" fill="#c7362b" stroke="#c7362b" stroke-width="1.51"/><path d="M606,706L304,1002L431,1009Z" fill="#cb2d2b" stroke="#cb2d2b" stroke-width="1.51"/><path d="M1225,847L974,523L871,857Z" fill="#d25f28" stroke="#d25f28" stroke-width="1.51"/><path d="M871,857L606,706L431,1009Z" fill="#d23d28" stroke="#d23d28" stroke-width="1.51"/><path d="M1878,897L1465,1337L1841,1257Z" fill="#ee9057" stroke="#ee9057" stroke-width="1.51"/><path d="M161,2029L262,2607L538,2129Z" fill="#ca6631" stroke="#ca6631" stroke-width="1.51"/><path d="M2196,890L1878,897L1841,1257Z" fill="#ea926c" stroke="#ea926c" stroke-width="1.51"/><path d="M-297,1363L-68,1760L185,1280Z" fill="#84483a" stroke="#84483a" stroke-width="1.51"/><path d="M185,1280L-68,1760L222,1670Z" fill="#9b4d35" stroke="#9b4d35" stroke-width="1.51"/><path d="M161,2029L-170,2239L262,2607Z" fill="#9b643d" stroke="#9b643d" stroke-width="1.51"/><path d="M974,523L606,706L871,857Z" fill="#c94f29" stroke="#c94f29" stroke-width="1.51"/><path d="M1730,3195L1735,2880L1317,2821Z" fill="#fac662" stroke="#fac662" stroke-width="1.51"/><path d="M1317,2821L1735,2880L1349,2479Z" fill="#fcbb48" stroke="#fcbb48" stroke-width="1.51"/><path d="M1444,704L974,523L1225,847Z" fill="#cf6c34" stroke="#cf6c34" stroke-width="1.51"/><path d="M262,2607L274,2861L594,2639Z" fill="#d67639" stroke="#d67639" stroke-width="1.51"/><path d="M621,2816L807,3163L1014,2866Z" fill="#f69635" stroke="#f69635" stroke-width="1.51"/><path d="M1014,2866L1190,3353L1317,2821Z" fill="#fbb042" stroke="#fbb042" stroke-width="1.51"/><path d="M-315,2924L274,2861L262,2607Z" fill="#99734a" stroke="#99734a" stroke-width="1.51"/><path d="M-68,1760L-170,2239L161,2029Z" fill="#8a593a" stroke="#8a593a" stroke-width="1.51"/><path d="M1735,2880L1982,2884L1791,2476Z" fill="#f8c975" stroke="#f8c975" stroke-width="1.51"/><path d="M2568,2213L2563,1861L2143,2006Z" fill="#f8b56b" stroke="#f8b56b" stroke-width="1.51"/><path d="M1730,3195L1982,2884L1735,2880Z" fill="#f7ce7c" stroke="#f7ce7c" stroke-width="1.51"/><path d="M597,3288L807,3163L621,2816Z" fill="#f28f41" stroke="#f28f41" stroke-width="1.51"/><path d="M1878,897L1833,431L1444,704Z" fill="#cd855d" stroke="#cd855d" stroke-width="1.51"/><path d="M1207,140L1113,153L974,523Z" fill="#a56239" stroke="#a56239" stroke-width="1.51"/><path d="M2203,1412L2196,890L1841,1257Z" fill="#ed986b" stroke="#ed986b" stroke-width="1.51"/><path d="M2143,2006L2563,1861L2056,1823Z" fill="#f7b168" stroke="#f7b168" stroke-width="1.51"/><path d="M2203,1412L2429,820L2196,890Z" fill="#eb926c" stroke="#eb926c" stroke-width="1.51"/><path d="M2568,2213L2143,2006L1968,2475Z" fill="#f8bc70" stroke="#f8bc70" stroke-width="1.51"/><path d="M-68,1760L-431,2040L-170,2239Z" fill="#8a5a3b" stroke="#8a5a3b" stroke-width="1.51"/><path d="M-151,808L-297,1363L185,1280Z" fill="#7f3e3a" stroke="#7f3e3a" stroke-width="1.51"/><path d="M-151,808L185,1280L304,1002Z" fill="#933937" stroke="#933937" stroke-width="1.51"/><path d="M2572,2577L2568,2213L1968,2475Z" fill="#f7c275" stroke="#f7c275" stroke-width="1.51"/><path d="M1190,3353L1730,3195L1317,2821Z" fill="#fbc157" stroke="#fbc157" stroke-width="1.51"/><path d="M1982,2884L2572,2577L1968,2475Z" fill="#f7c97c" stroke="#f7c97c" stroke-width="1.51"/><path d="M2568,2213L2620,1443L2563,1861Z" fill="#f7af68" stroke="#f7af68" stroke-width="1.51"/><path d="M2563,1861L2620,1443L2203,1412Z" fill="#f2a56a" stroke="#f2a56a" stroke-width="1.51"/><path d="M807,3163L1190,3353L1014,2866Z" fill="#fba740" stroke="#fba740" stroke-width="1.51"/><path d="M2247,460L1833,431L1878,897Z" fill="#c28c74" stroke="#c28c74" stroke-width="1.51"/><path d="M807,3163L873,3504L1190,3353Z" fill="#faa84b" stroke="#faa84b" stroke-width="1.51"/><path d="M274,2861L597,3288L621,2816Z" fill="#ec813e" stroke="#ec813e" stroke-width="1.51"/><path d="M606,706L315,464L304,1002Z" fill="#b23330" stroke="#b23330" stroke-width="1.51"/><path d="M607,50L315,464L606,706Z" fill="#a33733" stroke="#a33733" stroke-width="1.51"/><path d="M607,50L606,706L974,523Z" fill="#ac4931" stroke="#ac4931" stroke-width="1.51"/><path d="M-170,2239L-339,2410L262,2607Z" fill="#8a6644" stroke="#8a6644" stroke-width="1.51"/><path d="M274,2861L73,3258L597,3288Z" fill="#c97f4f" stroke="#c97f4f" stroke-width="1.51"/><path d="M-586,1629L-431,2040L-68,1760Z" fill="#895439" stroke="#895439" stroke-width="1.51"/><path d="M-431,2040L-339,2410L-170,2239Z" fill="#8a6040" stroke="#8a6040" stroke-width="1.51"/><path d="M-110,721L-151,808L304,1002Z" fill="#74373c" stroke="#74373c" stroke-width="1.51"/><path d="M2620,1443L2429,820L2203,1412Z" fill="#ed996b" stroke="#ed996b" stroke-width="1.51"/><path d="M2196,890L2247,460L1878,897Z" fill="#d28e70" stroke="#d28e70" stroke-width="1.51"/><path d="M2485,2950L2572,2577L1982,2884Z" fill="#f6ce80" stroke="#f6ce80" stroke-width="1.51"/><path d="M2568,2213L2572,2577L2620,1443Z" fill="#f8b76c" stroke="#f8b76c" stroke-width="1.51"/><path d="M315,464L-110,721L304,1002Z" fill="#863739" stroke="#863739" stroke-width="1.51"/><path d="M1207,140L974,523L1444,704Z" fill="#b86a3a" stroke="#b86a3a" stroke-width="1.51"/><path d="M1833,431L1207,140L1444,704Z" fill="#b57a4c" stroke="#b57a4c" stroke-width="1.51"/><path d="M597,3288L873,3504L807,3163Z" fill="#f49a4d" stroke="#f49a4d" stroke-width="1.51"/><path d="M1190,3353L1204,3539L1730,3195Z" fill="#fac363" stroke="#fac363" stroke-width="1.51"/><path d="M-297,1363L-586,1629L-68,1760Z" fill="#864c39" stroke="#864c39" stroke-width="1.51"/><path d="M-431,2040L-498,2575L-339,2410Z" fill="#8a6342" stroke="#8a6342" stroke-width="1.51"/><path d="M-598,1229L-586,1629L-297,1363Z" fill="#83463a" stroke="#83463a" stroke-width="1.51"/><path d="M-598,1229L-297,1363L-611,1086Z" fill="#80403a" stroke="#80403a" stroke-width="1.51"/><path d="M873,3504L1204,3539L1190,3353Z" fill="#f9b35a" stroke="#f9b35a" stroke-width="1.51"/><path d="M1833,431L1816,120L1207,140Z" fill="#9e7c5c" stroke="#9e7c5c" stroke-width="1.51"/><path d="M2429,820L2247,460L2196,890Z" fill="#d08d71" stroke="#d08d71" stroke-width="1.51"/><path d="M2127,3392L1982,2884L1730,3195Z" fill="#f3d591" stroke="#f3d591" stroke-width="1.51"/><path d="M2352,3282L2485,2950L1982,2884Z" fill="#f5d38b" stroke="#f5d38b" stroke-width="1.51"/><path d="M607,50L123,340L315,464Z" fill="#7e373a" stroke="#7e373a" stroke-width="1.51"/><path d="M315,464L123,340L-110,721Z" fill="#66373f" stroke="#66373f" stroke-width="1.51"/><path d="M-151,3237L73,3258L274,2861Z" fill="#957958" stroke="#957958" stroke-width="1.51"/><path d="M597,3288L462,3528L873,3504Z" fill="#f09455" stroke="#f09455" stroke-width="1.51"/><path d="M-339,2410L-315,2924L262,2607Z" fill="#8a6c4a" stroke="#8a6c4a" stroke-width="1.51"/><path d="M-586,1629L-498,2575L-431,2040Z" fill="#8a5c3c" stroke="#8a5c3c" stroke-width="1.51"/><path d="M-611,1086L-151,808L-483,451Z" fill="#6c373e" stroke="#6c373e" stroke-width="1.51"/><path d="M-611,1086L-297,1363L-151,808Z" fill="#7e3c3b" stroke="#7e3c3b" stroke-width="1.51"/><path d="M-498,2575L-315,2924L-339,2410Z" fill="#8a6c49" stroke="#8a6c49" stroke-width="1.51"/><path d="M2253,116L1816,120L1833,431Z" fill="#97877b" stroke="#97877b" stroke-width="1.51"/><path d="M1113,153L607,50L974,523Z" fill="#a05434" stroke="#a05434" stroke-width="1.51"/><path d="M526,-117L607,50L1097,-242Z" fill="#84493a" stroke="#84493a" stroke-width="1.51"/><path d="M607,50L1113,153L1097,-242Z" fill="#8a5638" stroke="#8a5638" stroke-width="1.51"/><path d="M2247,460L2253,116L1833,431Z" fill="#a48978" stroke="#a48978" stroke-width="1.51"/><path d="M2429,820L2393,482L2247,460Z" fill="#c08c74" stroke="#c08c74" stroke-width="1.51"/><path d="M2547,220L2393,482L2429,820Z" fill="#b78b75" stroke="#b78b75" stroke-width="1.51"/><path d="M873,3504L1098,4149L1204,3539Z" fill="#f8b667" stroke="#f8b667" stroke-width="1.51"/><path d="M73,3258L462,3528L597,3288Z" fill="#d58458" stroke="#d58458" stroke-width="1.51"/><path d="M1874,3698L2127,3392L1730,3195Z" fill="#f1daa0" stroke="#f1daa0" stroke-width="1.51"/><path d="M-598,1229L-611,1086L-586,1629Z" fill="#82433a" stroke="#82433a" stroke-width="1.51"/><path d="M-483,451L-151,808L-110,721Z" fill="#60363f" stroke="#60363f" stroke-width="1.51"/><path d="M73,3258L68,3664L462,3528Z" fill="#af8365" stroke="#af8365" stroke-width="1.51"/><path d="M-315,2924L-151,3237L274,2861Z" fill="#887556" stroke="#887556" stroke-width="1.51"/><path d="M-476,3125L-151,3237L-315,2924Z" fill="#87775a" stroke="#87775a" stroke-width="1.51"/><path d="M2127,3392L2352,3282L1982,2884Z" fill="#f3d693" stroke="#f3d693" stroke-width="1.51"/><path d="M-476,3125L-484,2916L-715,4018Z" fill="#837b67" stroke="#837b67" stroke-width="1.51"/><path d="M-498,2575L-484,2916L-315,2924Z" fill="#89714e" stroke="#89714e" stroke-width="1.51"/><path d="M123,340L-127,238L-110,721Z" fill="#483543" stroke="#483543" stroke-width="1.51"/><path d="M241,-244L-127,238L123,340Z" fill="#363446" stroke="#363446" stroke-width="1.51"/><path d="M607,50L526,-117L123,340Z" fill="#79373b" stroke="#79373b" stroke-width="1.51"/><path d="M1097,-242L1113,153L1207,140Z" fill="#8c6241" stroke="#8c6241" stroke-width="1.51"/><path d="M1204,3539L1874,3698L1730,3195Z" fill="#f7d080" stroke="#f7d080" stroke-width="1.51"/><path d="M2127,3392L2179,3797L2352,3282Z" fill="#efdba4" stroke="#efdba4" stroke-width="1.51"/><path d="M1400,4057L1874,3698L1204,3539Z" fill="#f6d184" stroke="#f6d184" stroke-width="1.51"/><path d="M2393,482L2253,116L2247,460Z" fill="#a68978" stroke="#a68978" stroke-width="1.51"/><path d="M1453,-260L1097,-242L1207,140Z" fill="#8a6846" stroke="#8a6846" stroke-width="1.51"/><path d="M1453,-260L1207,140L1816,120Z" fill="#887555" stroke="#887555" stroke-width="1.51"/><path d="M-484,2916L-476,3125L-315,2924Z" fill="#887555" stroke="#887555" stroke-width="1.51"/><path d="M-151,3237L68,3664L73,3258Z" fill="#837b68" stroke="#837b68" stroke-width="1.51"/><path d="M-535,3682L-476,3125L-715,4018Z" fill="#7f7f74" stroke="#7f7f74" stroke-width="1.51"/><path d="M2227,-115L1738,-179L1816,120Z" fill="#7a837f" stroke="#7a837f" stroke-width="1.51"/><path d="M1738,-179L1453,-260L1816,120Z" fill="#837b66" stroke="#837b66" stroke-width="1.51"/><path d="M-127,238L-483,451L-110,721Z" fill="#4c3542" stroke="#4c3542" stroke-width="1.51"/><path d="M-211,3650L68,3664L-151,3237Z" fill="#817e6f" stroke="#817e6f" stroke-width="1.51"/><path d="M462,3528L593,3943L873,3504Z" fill="#ef9761" stroke="#ef9761" stroke-width="1.51"/><path d="M2253,116L2227,-115L1816,120Z" fill="#80847e" stroke="#80847e" stroke-width="1.51"/><path d="M2393,482L2547,220L2253,116Z" fill="#9c877a" stroke="#9c877a" stroke-width="1.51"/><path d="M2620,1443L2547,220L2429,820Z" fill="#db8e6f" stroke="#db8e6f" stroke-width="1.51"/><path d="M298,4087L593,3943L462,3528Z" fill="#e38f6d" stroke="#e38f6d" stroke-width="1.51"/><path d="M2433,-111L2227,-115L2253,116Z" fill="#7a837f" stroke="#7a837f" stroke-width="1.51"/><path d="M1738,-179L1786,-484L1453,-260Z" fill="#847a65" stroke="#847a65" stroke-width="1.51"/><path d="M585,-560L241,-244L526,-117Z" fill="#77373c" stroke="#77373c" stroke-width="1.51"/><path d="M526,-117L241,-244L123,340Z" fill="#593641" stroke="#593641" stroke-width="1.51"/><path d="M-127,238L-587,206L-483,451Z" fill="#393445" stroke="#393445" stroke-width="1.51"/><path d="M585,-560L526,-117L1097,-242Z" fill="#84493a" stroke="#84493a" stroke-width="1.51"/><path d="M1874,3698L2179,3797L2127,3392Z" fill="#eddeac" stroke="#eddeac" stroke-width="1.51"/><path d="M2352,3282L2648,3683L2485,2950Z" fill="#f2d89a" stroke="#f2d89a" stroke-width="1.51"/><path d="M2062,3943L2179,3797L1874,3698Z" fill="#ebe1b5" stroke="#ebe1b5" stroke-width="1.51"/><path d="M1098,4149L1400,4057L1204,3539Z" fill="#f7c377" stroke="#f7c377" stroke-width="1.51"/><path d="M68,3664L298,4087L462,3528Z" fill="#be8a70" stroke="#be8a70" stroke-width="1.51"/><path d="M-476,3125L-211,3650L-151,3237Z" fill="#837b66" stroke="#837b66" stroke-width="1.51"/><path d="M2547,220L2433,-111L2253,116Z" fill="#84847d" stroke="#84847d" stroke-width="1.51"/><path d="M2227,-115L1786,-484L1738,-179Z" fill="#7a837e" stroke="#7a837e" stroke-width="1.51"/><path d="M1744,4139L2062,3943L1874,3698Z" fill="#ebe1b4" stroke="#ebe1b4" stroke-width="1.51"/><path d="M593,3943L1098,4149L873,3504Z" fill="#f5aa69" stroke="#f5aa69" stroke-width="1.51"/><path d="M1400,4057L1744,4139L1874,3698Z" fill="#f1d99c" stroke="#f1d99c" stroke-width="1.51"/><path d="M1043,4376L1098,4149L615,4363Z" fill="#f7af68" stroke="#f7af68" stroke-width="1.51"/><path d="M-312,-188L-587,206L-127,238Z" fill="#193148" stroke="#193148" stroke-width="1.51"/><path d="M-483,451L-587,206L-611,1086Z" fill="#583641" stroke="#583641" stroke-width="1.51"/><path d="M1453,-260L1318,-617L1097,-242Z" fill="#896b48" stroke="#896b48" stroke-width="1.51"/><path d="M2359,-424L1786,-484L2227,-115Z" fill="#7a837f" stroke="#7a837f" stroke-width="1.51"/><path d="M1646,4380L1744,4139L1400,4057Z" fill="#f3d693" stroke="#f3d693" stroke-width="1.51"/><path d="M2179,3797L2648,3683L2352,3282Z" fill="#eedda9" stroke="#eedda9" stroke-width="1.51"/><path d="M2485,2950L2648,3683L2572,2577Z" fill="#f4d48d" stroke="#f4d48d" stroke-width="1.51"/><path d="M2572,2577L2648,3683L2620,1443Z" fill="#f7c679" stroke="#f7c679" stroke-width="1.51"/><path d="M2540,4035L2648,3683L2179,3797Z" fill="#eae2b7" stroke="#eae2b7" stroke-width="1.51"/><path d="M2540,4035L2179,3797L2062,3943Z" fill="#eae2b7" stroke="#eae2b7" stroke-width="1.51"/><path d="M-190,4016L298,4087L68,3664Z" fill="#89857d" stroke="#89857d" stroke-width="1.51"/><path d="M241,-244L-312,-188L-127,238Z" fill="#003049" stroke="#003049" stroke-width="1.51"/><path d="M933,-713L585,-560L1097,-242Z" fill="#885139" stroke="#885139" stroke-width="1.51"/><path d="M1786,-484L1318,-617L1453,-260Z" fill="#877657" stroke="#877657" stroke-width="1.51"/><path d="M1043,4376L1246,4265L1098,4149Z" fill="#f8bc71" stroke="#f8bc71" stroke-width="1.51"/><path d="M1098,4149L1246,4265L1400,4057Z" fill="#f7c478" stroke="#f7c478" stroke-width="1.51"/><path d="M-150,-662L-312,-188L241,-244Z" fill="#003049" stroke="#003049" stroke-width="1.51"/><path d="M-211,3650L-190,4016L68,3664Z" fill="#7b827c" stroke="#7b827c" stroke-width="1.51"/><path d="M-476,3125L-535,3682L-211,3650Z" fill="#817d6d" stroke="#817d6d" stroke-width="1.51"/><path d="M-715,4018L-484,2916L-498,2575Z" fill="#86785e" stroke="#86785e" stroke-width="1.51"/><path d="M-715,4018L-498,2575L-586,1629Z" fill="#896f4c" stroke="#896f4c" stroke-width="1.51"/><path d="M585,-560L273,-662L241,-244Z" fill="#66373e" stroke="#66373e" stroke-width="1.51"/><path d="M1318,-617L933,-713L1097,-242Z" fill="#8a6040" stroke="#8a6040" stroke-width="1.51"/><path d="M2433,-111L2359,-424L2227,-115Z" fill="#7a837f" stroke="#7a837f" stroke-width="1.51"/><path d="M1786,-484L2225,-634L1318,-617Z" fill="#807e70" stroke="#807e70" stroke-width="1.51"/><path d="M1318,-617L2225,-634L933,-713Z" fill="#887555" stroke="#887555" stroke-width="1.51"/><path d="M2547,220L2359,-424L2433,-111Z" fill="#7a837f" stroke="#7a837f" stroke-width="1.51"/><path d="M615,4363L1098,4149L593,3943Z" fill="#f2a46a" stroke="#f2a46a" stroke-width="1.51"/><path d="M1246,4265L1646,4380L1400,4057Z" fill="#f6d082" stroke="#f6d082" stroke-width="1.51"/><path d="M-535,3682L-190,4016L-211,3650Z" fill="#7b827c" stroke="#7b827c" stroke-width="1.51"/><path d="M298,4087L615,4363L593,3943Z" fill="#ea916c" stroke="#ea916c" stroke-width="1.51"/><path d="M190,4395L615,4363L298,4087Z" fill="#d18e71" stroke="#d18e71" stroke-width="1.51"/><path d="M933,-713L273,-662L585,-560Z" fill="#803f3a" stroke="#803f3a" stroke-width="1.51"/><path d="M1043,4376L1646,4380L1246,4265Z" fill="#f7c87b" stroke="#f7c87b" stroke-width="1.51"/><path d="M1744,4139L2084,4413L2062,3943Z" fill="#eae2b7" stroke="#eae2b7" stroke-width="1.51"/><path d="M2084,4413L2540,4035L2062,3943Z" fill="#eae2b7" stroke="#eae2b7" stroke-width="1.51"/><path d="M2359,-424L2225,-634L1786,-484Z" fill="#7a837f" stroke="#7a837f" stroke-width="1.51"/><path d="M-312,-188L-630,-277L-587,206Z" fill="#003049" stroke="#003049" stroke-width="1.51"/><path d="M-587,206L-630,-277L-611,1086Z" fill="#3e3444" stroke="#3e3444" stroke-width="1.51"/><path d="M-573,-446L-630,-277L-312,-188Z" fill="#003049" stroke="#003049" stroke-width="1.51"/><path d="M-148,4517L2084,4413L1646,4380Z" fill="#f8c175" stroke="#f8c175" stroke-width="1.51"/><path d="M615,4363L-148,4517L1043,4376Z" fill="#ea916c" stroke="#ea916c" stroke-width="1.51"/><path d="M-190,4016L190,4395L298,4087Z" fill="#93867b" stroke="#93867b" stroke-width="1.51"/><path d="M-148,4517L190,4395L-190,4016Z" fill="#7a837f" stroke="#7a837f" stroke-width="1.51"/><path d="M1646,4380L2084,4413L1744,4139Z" fill="#eddead" stroke="#eddead" stroke-width="1.51"/><path d="M-148,4517L1646,4380L1043,4376Z" fill="#f5aa69" stroke="#f5aa69" stroke-width="1.51"/><path d="M933,-713L-150,-662L273,-662Z" fill="#64373f" stroke="#64373f" stroke-width="1.51"/><path d="M273,-662L-150,-662L241,-244Z" fill="#323346" stroke="#323346" stroke-width="1.51"/><path d="M-150,-662L-573,-446L-312,-188Z" fill="#003049" stroke="#003049" stroke-width="1.51"/><path d="M-535,3682L-715,4018L-190,4016Z" fill="#7a837f" stroke="#7a837f" stroke-width="1.51"/><path d="M-611,1086L-715,4018L-586,1629Z" fill="#8a6040" stroke="#8a6040" stroke-width="1.51"/><path d="M-630,-277L-715,4018L-611,1086Z" fill="#864d39" stroke="#864d39" stroke-width="1.51"/><path d="M190,4395L-148,4517L615,4363Z" fill="#b08a77" stroke="#b08a77" stroke-width="1.51"/><path d="M-551,4390L-148,4517L-190,4016Z" fill="#7a837f" stroke="#7a837f" stroke-width="1.51"/><path d="M2540,4035L2642,4417L2648,3683Z" fill="#eae2b7" stroke="#eae2b7" stroke-width="1.51"/><path d="M2084,4413L2642,4417L2540,4035Z" fill="#eae2b7" stroke="#eae2b7" stroke-width="1.51"/><path d="M-148,4517L2642,4417L2084,4413Z" fill="#f4d38c" stroke="#f4d38c" stroke-width="1.51"/><path d="M-715,4018L-551,4390L-190,4016Z" fill="#7a837f" stroke="#7a837f" stroke-width="1.51"/></svg>