<svg xmlns="http://www.w3.org/2000/svg" width="1920" height="1080"><path d="M1017,630L774,681L1028,831Z" fill="#f99320" stroke="#f99320" stroke-width="1.51"/><path d="M774,681L726,1025L1028,831Z" fill="#f69a34" stroke="#f69a34" stroke-width="1.51"/><path d="M1028,831L1284,747L1017,630Z" fill="#fba12d" stroke="#fba12d" stroke-width="1.51"/><path d="M1257,983L1284,747L1028,831Z" fill="#fbb240" stroke="#fbb240" stroke-width="1.51"/><path d="M1017,630L932,315L774,681Z" fill="#f67c06" stroke="#f67c06" stroke-width="1.51"/><path d="M1258,355L932,315L1017,630Z" fill="#f27819" stroke="#f27819" stroke-width="1.51"/><path d="M785,1247L1257,983L1028,831Z" fill="#f7b24b" stroke="#f7b24b" stroke-width="1.51"/><path d="M932,315L683,337L774,681Z" fill="#ec6618" stroke="#ec6618" stroke-width="1.51"/><path d="M774,681L434,942L726,1025Z" fill="#f08f3d" stroke="#f08f3d" stroke-width="1.51"/><path d="M683,337L529,478L774,681Z" fill="#eb621a" stroke="#eb621a" stroke-width="1.51"/><path d="M1284,747L1258,355L1017,630Z" fill="#fa931e" stroke="#fa931e" stroke-width="1.51"/><path d="M371,605L434,942L774,681Z" fill="#ec7831" stroke="#ec7831" stroke-width="1.51"/><path d="M726,1025L785,1247L1028,831Z" fill="#f4a74b" stroke="#f4a74b" stroke-width="1.51"/><path d="M478,1171L785,1247L726,1025Z" fill="#ed9d53" stroke="#ed9d53" stroke-width="1.51"/><path d="M932,315L844,207L683,337Z" fill="#e34f21" stroke="#e34f21" stroke-width="1.51"/><path d="M1163,85L844,207L932,315Z" fill="#d05c27" stroke="#d05c27" stroke-width="1.51"/><path d="M529,478L371,605L774,681Z" fill="#eb6620" stroke="#eb6620" stroke-width="1.51"/><path d="M430,185L371,605L529,478Z" fill="#d94725" stroke="#d94725" stroke-width="1.51"/><path d="M785,1247L858,1324L1257,983Z" fill="#f5b24f" stroke="#f5b24f" stroke-width="1.51"/><path d="M657,1596L858,1324L785,1247Z" fill="#f0a551" stroke="#f0a551" stroke-width="1.51"/><path d="M1284,747L1537,517L1258,355Z" fill="#fa9b26" stroke="#fa9b26" stroke-width="1.51"/><path d="M1257,983L1522,786L1284,747Z" fill="#fcbc48" stroke="#fcbc48" stroke-width="1.51"/><path d="M1604,1026L1522,786L1257,983Z" fill="#f8c859" stroke="#f8c859" stroke-width="1.51"/><path d="M434,942L478,1171L726,1025Z" fill="#ea9350" stroke="#ea9350" stroke-width="1.51"/><path d="M858,1324L1311,1213L1257,983Z" fill="#f5be58" stroke="#f5be58" stroke-width="1.51"/><path d="M683,337L430,185L529,478Z" fill="#dd3e25" stroke="#dd3e25" stroke-width="1.51"/><path d="M844,207L641,143L683,337Z" fill="#d14627" stroke="#d14627" stroke-width="1.51"/><path d="M371,605L261,651L434,942Z" fill="#d27238" stroke="#d27238" stroke-width="1.51"/><path d="M434,942L250,921L478,1171Z" fill="#d58a52" stroke="#d58a52" stroke-width="1.51"/><path d="M38,389L261,651L371,605Z" fill="#b55b2f" stroke="#b55b2f" stroke-width="1.51"/><path d="M1522,786L1537,517L1284,747Z" fill="#fcb13c" stroke="#fcb13c" stroke-width="1.51"/><path d="M261,651L250,921L434,942Z" fill="#ca7d44" stroke="#ca7d44" stroke-width="1.51"/><path d="M1258,355L1163,85L932,315Z" fill="#e36629" stroke="#e36629" stroke-width="1.51"/><path d="M844,207L578,-47L641,143Z" fill="#a54633" stroke="#a54633" stroke-width="1.51"/><path d="M1518,156L1163,85L1258,355Z" fill="#d17339" stroke="#d17339" stroke-width="1.51"/><path d="M858,1324L1158,1406L1311,1213Z" fill="#f6bc56" stroke="#f6bc56" stroke-width="1.51"/><path d="M641,143L430,185L683,337Z" fill="#ca392b" stroke="#ca392b" stroke-width="1.51"/><path d="M1825,673L1713,465L1537,517Z" fill="#f8ab40" stroke="#f8ab40" stroke-width="1.51"/><path d="M1311,1213L1604,1026L1257,983Z" fill="#f5cd66" stroke="#f5cd66" stroke-width="1.51"/><path d="M1582,1179L1604,1026L1311,1213Z" fill="#f3d36d" stroke="#f3d36d" stroke-width="1.51"/><path d="M858,1324L989,1500L1158,1406Z" fill="#f6b550" stroke="#f6b550" stroke-width="1.51"/><path d="M746,1657L989,1500L858,1324Z" fill="#f3ab50" stroke="#f3ab50" stroke-width="1.51"/><path d="M1582,1179L1311,1213L1486,1508Z" fill="#f4d16a" stroke="#f4d16a" stroke-width="1.51"/><path d="M1713,1257L1582,1179L1486,1508Z" fill="#f1d673" stroke="#f1d673" stroke-width="1.51"/><path d="M1713,465L1518,156L1537,517Z" fill="#f1913d" stroke="#f1913d" stroke-width="1.51"/><path d="M1537,517L1518,156L1258,355Z" fill="#f08635" stroke="#f08635" stroke-width="1.51"/><path d="M478,1171L515,1529L785,1247Z" fill="#eb9853" stroke="#eb9853" stroke-width="1.51"/><path d="M250,921L268,1278L478,1171Z" fill="#c88d5c" stroke="#c88d5c" stroke-width="1.51"/><path d="M1825,673L1537,517L1522,786Z" fill="#f9b546" stroke="#f9b546" stroke-width="1.51"/><path d="M1776,916L1522,786L1604,1026Z" fill="#f7cd62" stroke="#f7cd62" stroke-width="1.51"/><path d="M641,143L437,-21L430,185Z" fill="#9f3734" stroke="#9f3734" stroke-width="1.51"/><path d="M1015,-141L578,-47L844,207Z" fill="#884e38" stroke="#884e38" stroke-width="1.51"/><path d="M1015,-141L844,207L1163,85Z" fill="#9c5b37" stroke="#9c5b37" stroke-width="1.51"/><path d="M1713,1257L1776,916L1604,1026Z" fill="#f0d978" stroke="#f0d978" stroke-width="1.51"/><path d="M1329,-111L1015,-141L1163,85Z" fill="#8a6342" stroke="#8a6342" stroke-width="1.51"/><path d="M268,1278L515,1529L478,1171Z" fill="#db8f57" stroke="#db8f57" stroke-width="1.51"/><path d="M578,-47L437,-21L641,143Z" fill="#873c39" stroke="#873c39" stroke-width="1.51"/><path d="M430,185L150,237L371,605Z" fill="#bc3e2d" stroke="#bc3e2d" stroke-width="1.51"/><path d="M592,-414L437,-21L578,-47Z" fill="#7e3b3a" stroke="#7e3b3a" stroke-width="1.51"/><path d="M515,1529L657,1596L785,1247Z" fill="#ec9c53" stroke="#ec9c53" stroke-width="1.51"/><path d="M261,651L-188,636L250,921Z" fill="#a06e44" stroke="#a06e44" stroke-width="1.51"/><path d="M250,921L-29,1195L268,1278Z" fill="#a38963" stroke="#a38963" stroke-width="1.51"/><path d="M437,-21L150,237L430,185Z" fill="#8e3738" stroke="#8e3738" stroke-width="1.51"/><path d="M1776,916L1825,673L1522,786Z" fill="#f8c759" stroke="#f8c759" stroke-width="1.51"/><path d="M1486,1508L1311,1213L1158,1406Z" fill="#f5c962" stroke="#f5c962" stroke-width="1.51"/><path d="M657,1596L746,1657L858,1324Z" fill="#efa451" stroke="#efa451" stroke-width="1.51"/><path d="M528,1731L746,1657L657,1596Z" fill="#ec9c53" stroke="#ec9c53" stroke-width="1.51"/><path d="M150,237L38,389L371,605Z" fill="#a74932" stroke="#a74932" stroke-width="1.51"/><path d="M1518,156L1329,-111L1163,85Z" fill="#9a6f47" stroke="#9a6f47" stroke-width="1.51"/><path d="M1776,916L2043,863L1825,673Z" fill="#f5d067" stroke="#f5d067" stroke-width="1.51"/><path d="M1582,1179L1713,1257L1604,1026Z" fill="#f1d875" stroke="#f1d875" stroke-width="1.51"/><path d="M969,1692L1158,1406L989,1500Z" fill="#f5b752" stroke="#f5b752" stroke-width="1.51"/><path d="M746,1657L969,1692L989,1500Z" fill="#f4ae4f" stroke="#f4ae4f" stroke-width="1.51"/><path d="M1331,1838L1486,1508L1158,1406Z" fill="#f5c962" stroke="#f5c962" stroke-width="1.51"/><path d="M2017,167L1731,193L1713,465Z" fill="#e98d4f" stroke="#e98d4f" stroke-width="1.51"/><path d="M1713,465L1731,193L1518,156Z" fill="#ea8645" stroke="#ea8645" stroke-width="1.51"/><path d="M1518,156L1592,-108L1329,-111Z" fill="#887452" stroke="#887452" stroke-width="1.51"/><path d="M515,1529L528,1731L657,1596Z" fill="#ea9754" stroke="#ea9754" stroke-width="1.51"/><path d="M268,1278L247,1508L515,1529Z" fill="#ca8d5b" stroke="#ca8d5b" stroke-width="1.51"/><path d="M-29,1195L247,1508L268,1278Z" fill="#a28963" stroke="#a28963" stroke-width="1.51"/><path d="M-171,1022L-29,1195L250,921Z" fill="#838265" stroke="#838265" stroke-width="1.51"/><path d="M247,1508L528,1731L515,1529Z" fill="#dd8f57" stroke="#dd8f57" stroke-width="1.51"/><path d="M746,1657L528,1731L969,1692Z" fill="#efa352" stroke="#efa352" stroke-width="1.51"/><path d="M1731,193L1592,-108L1518,156Z" fill="#a57d53" stroke="#a57d53" stroke-width="1.51"/><path d="M1336,-436L879,-425L1015,-141Z" fill="#8a5e3e" stroke="#8a5e3e" stroke-width="1.51"/><path d="M38,389L-188,636L261,651Z" fill="#925a38" stroke="#925a38" stroke-width="1.51"/><path d="M150,237L-73,237L38,389Z" fill="#843939" stroke="#843939" stroke-width="1.51"/><path d="M149,-183L-73,237L150,237Z" fill="#4f3642" stroke="#4f3642" stroke-width="1.51"/><path d="M-164,382L-188,636L38,389Z" fill="#874f39" stroke="#874f39" stroke-width="1.51"/><path d="M1486,1508L1805,1422L1713,1257Z" fill="#f0d977" stroke="#f0d977" stroke-width="1.51"/><path d="M1331,1838L1570,1642L1486,1508Z" fill="#f4d26a" stroke="#f4d26a" stroke-width="1.51"/><path d="M1331,1838L1158,1406L969,1692Z" fill="#f5be59" stroke="#f5be59" stroke-width="1.51"/><path d="M-188,636L-171,1022L250,921Z" fill="#877654" stroke="#877654" stroke-width="1.51"/><path d="M1570,1642L1805,1422L1486,1508Z" fill="#f1d774" stroke="#f1d774" stroke-width="1.51"/><path d="M2043,1116L2043,863L1776,916Z" fill="#efdb7a" stroke="#efdb7a" stroke-width="1.51"/><path d="M-73,237L-164,382L38,389Z" fill="#803f3a" stroke="#803f3a" stroke-width="1.51"/><path d="M2043,1116L1776,916L1713,1257Z" fill="#ece083" stroke="#ece083" stroke-width="1.51"/><path d="M1825,673L2062,481L1713,465Z" fill="#f6b04a" stroke="#f6b04a" stroke-width="1.51"/><path d="M1731,193L1738,-90L1592,-108Z" fill="#837b5d" stroke="#837b5d" stroke-width="1.51"/><path d="M1015,-141L879,-425L578,-47Z" fill="#864e39" stroke="#864e39" stroke-width="1.51"/><path d="M437,-21L149,-183L150,237Z" fill="#523641" stroke="#523641" stroke-width="1.51"/><path d="M1336,-436L1015,-141L1329,-111Z" fill="#8a6745" stroke="#8a6745" stroke-width="1.51"/><path d="M1592,-108L1471,-337L1329,-111Z" fill="#887451" stroke="#887451" stroke-width="1.51"/><path d="M2021,-46L1738,-90L1731,193Z" fill="#878163" stroke="#878163" stroke-width="1.51"/><path d="M2130,732L2062,481L1825,673Z" fill="#f6bc57" stroke="#f6bc57" stroke-width="1.51"/><path d="M528,1731L1331,1838L969,1692Z" fill="#f5b14e" stroke="#f5b14e" stroke-width="1.51"/><path d="M2043,863L2130,732L1825,673Z" fill="#f5cb64" stroke="#f5cb64" stroke-width="1.51"/><path d="M1805,1422L2043,1116L1713,1257Z" fill="#ece083" stroke="#ece083" stroke-width="1.51"/><path d="M879,-425L592,-414L578,-47Z" fill="#82453a" stroke="#82453a" stroke-width="1.51"/><path d="M359,-513L149,-183L437,-21Z" fill="#5c3640" stroke="#5c3640" stroke-width="1.51"/><path d="M-73,237L-285,63L-164,382Z" fill="#6e373d" stroke="#6e373d" stroke-width="1.51"/><path d="M1851,-368L1471,-337L1592,-108Z" fill="#847a5a" stroke="#847a5a" stroke-width="1.51"/><path d="M2270,750L2130,732L2043,863Z" fill="#f5ce66" stroke="#f5ce66" stroke-width="1.51"/><path d="M2205,464L2017,167L2062,481Z" fill="#ed9d53" stroke="#ed9d53" stroke-width="1.51"/><path d="M2062,481L2017,167L1713,465Z" fill="#ed9d53" stroke="#ed9d53" stroke-width="1.51"/><path d="M1738,-90L1851,-368L1592,-108Z" fill="#827c5f" stroke="#827c5f" stroke-width="1.51"/><path d="M1471,-337L1336,-436L1329,-111Z" fill="#896f4d" stroke="#896f4d" stroke-width="1.51"/><path d="M-439,1193L-64,1571L-29,1195Z" fill="#7d836a" stroke="#7d836a" stroke-width="1.51"/><path d="M-29,1195L-64,1571L247,1508Z" fill="#898568" stroke="#898568" stroke-width="1.51"/><path d="M247,1508L96,1858L528,1731Z" fill="#bf8c5d" stroke="#bf8c5d" stroke-width="1.51"/><path d="M2130,732L2205,464L2062,481Z" fill="#f6b450" stroke="#f6b450" stroke-width="1.51"/><path d="M2270,750L2205,464L2130,732Z" fill="#f5bf59" stroke="#f5bf59" stroke-width="1.51"/><path d="M1805,1422L2196,1270L2043,1116Z" fill="#eae287" stroke="#eae287" stroke-width="1.51"/><path d="M1570,1642L1777,1782L1805,1422Z" fill="#efdb7b" stroke="#efdb7b" stroke-width="1.51"/><path d="M1331,1838L1777,1782L1570,1642Z" fill="#f2d570" stroke="#f2d570" stroke-width="1.51"/><path d="M1471,-337L1851,-368L1336,-436Z" fill="#877756" stroke="#877756" stroke-width="1.51"/><path d="M2017,167L2021,-46L1731,193Z" fill="#a88962" stroke="#a88962" stroke-width="1.51"/><path d="M2324,250L2021,-46L2017,167Z" fill="#b08a61" stroke="#b08a61" stroke-width="1.51"/><path d="M2417,1045L2270,750L2043,863Z" fill="#f2d671" stroke="#f2d671" stroke-width="1.51"/><path d="M2417,1045L2043,863L2043,1116Z" fill="#edde7f" stroke="#edde7f" stroke-width="1.51"/><path d="M592,-414L359,-513L437,-21Z" fill="#79373b" stroke="#79373b" stroke-width="1.51"/><path d="M879,-425L359,-513L592,-414Z" fill="#80403a" stroke="#80403a" stroke-width="1.51"/><path d="M1336,-436L359,-513L879,-425Z" fill="#875039" stroke="#875039" stroke-width="1.51"/><path d="M-99,-212L-73,237L149,-183Z" fill="#003049" stroke="#003049" stroke-width="1.51"/><path d="M-99,-212L-285,63L-73,237Z" fill="#1e3248" stroke="#1e3248" stroke-width="1.51"/><path d="M-424,309L-490,705L-188,636Z" fill="#8a5839" stroke="#8a5839" stroke-width="1.51"/><path d="M-188,636L-490,705L-171,1022Z" fill="#89714d" stroke="#89714d" stroke-width="1.51"/><path d="M-64,1571L-12,1760L247,1508Z" fill="#8a8568" stroke="#8a8568" stroke-width="1.51"/><path d="M528,1731L96,1858L1331,1838Z" fill="#ec9c53" stroke="#ec9c53" stroke-width="1.51"/><path d="M160,-462L-99,-212L149,-183Z" fill="#243247" stroke="#243247" stroke-width="1.51"/><path d="M-12,1760L96,1858L247,1508Z" fill="#978765" stroke="#978765" stroke-width="1.51"/><path d="M2076,1540L2196,1270L1805,1422Z" fill="#eae287" stroke="#eae287" stroke-width="1.51"/><path d="M-424,309L-188,636L-164,382Z" fill="#854c39" stroke="#854c39" stroke-width="1.51"/><path d="M-171,1022L-439,1193L-29,1195Z" fill="#7d836a" stroke="#7d836a" stroke-width="1.51"/><path d="M-64,1571L-414,1672L-12,1760Z" fill="#7d836a" stroke="#7d836a" stroke-width="1.51"/><path d="M-285,63L-424,309L-164,382Z" fill="#76373c" stroke="#76373c" stroke-width="1.51"/><path d="M-490,705L-468,1001L-171,1022Z" fill="#857959" stroke="#857959" stroke-width="1.51"/><path d="M1777,1782L2076,1540L1805,1422Z" fill="#ebe185" stroke="#ebe185" stroke-width="1.51"/><path d="M359,-513L160,-462L149,-183Z" fill="#4a3543" stroke="#4a3543" stroke-width="1.51"/><path d="M-468,1001L-439,1193L-171,1022Z" fill="#7d8269" stroke="#7d8269" stroke-width="1.51"/><path d="M2021,-46L1851,-368L1738,-90Z" fill="#7e8167" stroke="#7e8167" stroke-width="1.51"/><path d="M2205,464L2324,250L2017,167Z" fill="#e99354" stroke="#e99354" stroke-width="1.51"/><path d="M2021,-46L1976,-448L1851,-368Z" fill="#7d836a" stroke="#7d836a" stroke-width="1.51"/><path d="M2270,750L2324,250L2205,464Z" fill="#f3ac50" stroke="#f3ac50" stroke-width="1.51"/><path d="M1777,1782L2111,1638L2076,1540Z" fill="#eae287" stroke="#eae287" stroke-width="1.51"/><path d="M2076,1540L2404,1396L2196,1270Z" fill="#eae287" stroke="#eae287" stroke-width="1.51"/><path d="M-229,-288L-284,-199L-99,-212Z" fill="#003049" stroke="#003049" stroke-width="1.51"/><path d="M-99,-212L-284,-199L-285,63Z" fill="#003049" stroke="#003049" stroke-width="1.51"/><path d="M-285,63L-406,-369L-424,309Z" fill="#013049" stroke="#013049" stroke-width="1.51"/><path d="M160,-462L-229,-288L-99,-212Z" fill="#003049" stroke="#003049" stroke-width="1.51"/><path d="M2270,750L2417,1045L2324,250Z" fill="#f5c25c" stroke="#f5c25c" stroke-width="1.51"/><path d="M2196,1270L2417,1045L2043,1116Z" fill="#eae287" stroke="#eae287" stroke-width="1.51"/><path d="M2404,1396L2417,1045L2196,1270Z" fill="#eae287" stroke="#eae287" stroke-width="1.51"/><path d="M-468,1001L-485,1474L-439,1193Z" fill="#7d836a" stroke="#7d836a" stroke-width="1.51"/><path d="M-439,1193L-485,1474L-64,1571Z" fill="#7d836a" stroke="#7d836a" stroke-width="1.51"/><path d="M-12,1760L-414,1672L96,1858Z" fill="#7d836a" stroke="#7d836a" stroke-width="1.51"/><path d="M-490,705L-485,1474L-468,1001Z" fill="#7e8168" stroke="#7e8168" stroke-width="1.51"/><path d="M2390,-307L1976,-448L2021,-46Z" fill="#7d836a" stroke="#7d836a" stroke-width="1.51"/><path d="M1851,-368L1976,-448L1336,-436Z" fill="#827c5f" stroke="#827c5f" stroke-width="1.51"/><path d="M1336,-436L1976,-448L359,-513Z" fill="#8a6745" stroke="#8a6745" stroke-width="1.51"/><path d="M-485,1474L-414,1672L-64,1571Z" fill="#7d836a" stroke="#7d836a" stroke-width="1.51"/><path d="M2111,1638L2404,1396L2076,1540Z" fill="#eae287" stroke="#eae287" stroke-width="1.51"/><path d="M2111,1638L2287,1731L2404,1396Z" fill="#eae287" stroke="#eae287" stroke-width="1.51"/><path d="M1777,1782L2287,1731L2111,1638Z" fill="#eae287" stroke="#eae287" stroke-width="1.51"/><path d="M1331,1838L2287,1731L1777,1782Z" fill="#edde80" stroke="#edde80" stroke-width="1.51"/><path d="M160,-462L-406,-369L-229,-288Z" fill="#003049" stroke="#003049" stroke-width="1.51"/><path d="M-229,-288L-406,-369L-284,-199Z" fill="#003049" stroke="#003049" stroke-width="1.51"/><path d="M-284,-199L-406,-369L-285,63Z" fill="#003049" stroke="#003049" stroke-width="1.51"/><path d="M-424,309L-406,-369L-490,705Z" fill="#6a373e" stroke="#6a373e" stroke-width="1.51"/><path d="M359,-513L-406,-369L160,-462Z" fill="#173148" stroke="#173148" stroke-width="1.51"/><path d="M2324,250L2406,-155L2021,-46Z" fill="#838468" stroke="#838468" stroke-width="1.51"/><path d="M2417,1045L2406,-155L2324,250Z" fill="#ed9e52" stroke="#ed9e52" stroke-width="1.51"/><path d="M2406,-155L2390,-307L2021,-46Z" fill="#7d836a" stroke="#7d836a" stroke-width="1.51"/></svg>